<svg width="23" height="23" viewBox="0 0 23 23" fill="none" xmlns="http://www.w3.org/2000/svg">
<path d="M8.6026 0.0494137C6.88658 0.229101 5.23346 0.884962 3.81842 1.94512C3.27037 2.35391 2.35396 3.27031 1.94517 3.81836C0.0270112 6.3834 -0.503067 9.61777 0.507675 12.6365C1.39713 15.2914 3.45904 17.4521 6.10943 18.5078C6.67096 18.7324 7.58287 18.975 8.24322 19.0738C8.89908 19.1727 10.1749 19.1727 10.8756 19.0738C12.5243 18.8402 14.0471 18.1979 15.4442 17.1512L15.6374 17.0074L18.5438 19.9094C21.6075 22.973 21.6344 22.9955 22.0342 23C22.2319 23 22.6227 22.8383 22.7395 22.7035C22.8698 22.5553 23.0001 22.2229 23.0001 22.0342C23.0001 21.6344 22.9731 21.6074 19.9094 18.5438L17.0075 15.6373L17.1512 15.4441C18.1979 14.0471 18.8403 12.5242 19.0739 10.8756C19.1682 10.1793 19.1682 8.89902 19.0739 8.24316C18.7594 6.1543 17.8161 4.28555 16.3202 2.79863C15.2376 1.72051 14.0112 0.961329 12.5782 0.494141C11.2799 0.0673828 9.90084 -0.0853519 8.6026 0.0494137ZM10.6645 2.00352C12.3805 2.26855 13.7956 2.97832 14.977 4.15977C16.1629 5.3457 16.8997 6.79668 17.1647 8.46777C17.2411 8.93945 17.2411 10.2063 17.1647 10.6914C16.7784 13.198 15.2241 15.3229 12.9465 16.4594C12.3087 16.7783 11.4462 17.0523 10.6915 17.1646C10.2063 17.241 8.93951 17.241 8.46783 17.1646C6.79674 16.8996 5.34576 16.1629 4.15982 14.977C2.71783 13.535 1.9317 11.6348 1.9317 9.59082C1.9317 8.32852 2.20572 7.20547 2.7942 6.06445C3.16256 5.3457 3.57584 4.78418 4.17779 4.17773C5.37271 2.98281 6.79674 2.26406 8.49478 1.99902C9.03385 1.91817 10.1165 1.91817 10.6645 2.00352Z" fill="#A8A8A8" fill-opacity="0.62"/>
<path d="M11.6707 4.93692L11.5225 5.06719L11.509 9.51895C11.4955 14.4154 11.482 14.1594 11.7695 14.3076C11.9627 14.4065 13.9123 14.4065 14.1055 14.3076C14.393 14.1594 14.3795 14.4154 14.366 9.51895L14.3526 5.06719L14.2043 4.93692L14.0606 4.80665H12.9375H11.8145L11.6707 4.93692Z" fill="#A8A8A8" fill-opacity="0.62"/>
<path d="M7.8209 7.82089L7.68164 7.96014V11.0103V14.0605L7.81191 14.2043L7.94219 14.3525L8.99336 14.366C10.1389 14.384 10.3186 14.357 10.4488 14.1594C10.5297 14.0471 10.5342 13.8808 10.5477 11.1855C10.5566 9.61776 10.5477 8.24315 10.5342 8.13534C10.5117 8.00057 10.4623 7.89276 10.377 7.80741L10.2512 7.68163H9.10566H7.96016L7.8209 7.82089Z" fill="#A8A8A8" fill-opacity="0.62"/>
<path d="M3.99805 10.6824C3.9127 10.7678 3.86328 10.8801 3.84082 11.0103C3.82735 11.1182 3.81836 11.8459 3.82735 12.623C3.84082 13.9168 3.84981 14.0471 3.92618 14.1594C4.05645 14.357 4.23614 14.384 5.38164 14.366L6.43282 14.3525L6.56309 14.2043L6.69336 14.0605V12.4478V10.8351L6.55411 10.6959L6.41485 10.5566H5.26934H4.12383L3.99805 10.6824Z" fill="#A8A8A8" fill-opacity="0.62"/>
</svg>
