<svg width="1440" height="1024" viewBox="0 0 1440 1024" fill="none" xmlns="http://www.w3.org/2000/svg">
<g clip-path="url(#clip0_82_2537)">
<mask id="mask0_82_2537" style="mask-type:luminance" maskUnits="userSpaceOnUse" x="-13" y="-4" width="1477" height="1033">
<path d="M-12.1191 -3.81155H1463.83V1028.57H-12.1191V-3.81155Z" fill="white"/>
</mask>
<g mask="url(#mask0_82_2537)">
<path d="M-5.9082 -3.81155H1451.83V1047.14H-5.9082V-3.81155Z" fill="#2F3241" fill-opacity="0.4"/>
<path opacity="0.1" d="M-143.533 -48.9339H142.014V312.055H-143.533V-48.9339Z" fill="#54617A"/>
<path opacity="0.2" d="M142.044 51.7025L142.051 312.055H23.1465L142.044 51.7025Z" fill="#2F3241" fill-opacity="0.4"/>
<path opacity="0.1" d="M998.798 671.943H2134.55V1032.93H998.798V671.943ZM142.051 -48.9339H427.598V312.055H142.051V-48.9339Z" fill="#2F3241"/>
<path d="M142.051 51.7025V312.055H260.956L142.051 51.7025Z" fill="#414357"/>
<path d="M535.891 911.777H534.593C534.593 911.777 534.091 910.165 532.163 909.871H530.693C528.466 910.108 526.088 911.132 526.088 911.132C526.088 911.132 522.443 912.441 520.021 912.441H515.161C512.138 913.086 510.316 915.693 510.316 915.693C510.316 915.693 507.878 917.001 506.056 916.357L504.233 915.693L501.811 916.357H498.766C498.766 916.357 498.166 917.002 495.743 917.002H493.298L488.453 920.273L487.231 922.88V924.956C486.788 925.042 486.271 925.051 485.678 924.843C484.891 924.568 483.541 924.283 482.258 924.046L479.941 920.927C479.941 920.927 478.718 919.618 476.903 918.974L475.081 918.329L472.898 917.988L471.106 917.02L468.668 915.067L466.246 913.759L462.601 913.114L459.556 911.806C459.556 911.806 458.356 911.806 456.533 911.161L454.711 910.516C454.711 910.516 452.888 913.124 450.451 912.469C448.028 911.806 451.673 911.806 448.028 911.806H444.383C444.383 911.806 443.881 910.194 441.953 909.9H440.483C438.256 910.137 435.878 911.161 435.878 911.161C435.878 911.161 432.233 912.469 429.811 912.469H424.951C421.928 913.114 420.106 915.721 420.106 915.721C420.106 915.721 417.668 917.03 415.846 916.385L414.023 915.721L411.601 916.385H408.556C408.556 916.385 408.346 916.594 407.716 916.774C407.251 916.907 406.561 917.03 405.526 917.03H403.088L398.768 919.941L397.276 918.338L394.853 917.03L392.416 915.077L389.993 913.768L386.348 913.124L383.303 911.815C383.303 911.815 382.103 911.815 380.281 911.17L378.458 910.526C378.458 910.526 376.636 913.133 374.198 912.479C371.776 911.815 375.421 911.815 371.776 911.815H368.131C368.131 911.815 367.531 909.862 365.086 909.862C362.641 909.862 359.618 911.17 359.618 911.17C359.618 911.17 355.973 912.479 353.551 912.479H348.691C345.668 913.124 343.846 915.731 343.846 915.731C343.846 915.731 341.408 917.039 339.586 916.395L337.763 915.731L335.341 916.395H332.296C332.296 916.395 331.696 917.039 329.273 917.039H326.828L321.983 920.311L320.761 922.918V924.994C320.318 925.08 319.801 925.089 319.208 924.881C318.421 924.606 317.071 924.321 315.788 924.084L313.471 920.965C313.471 920.965 312.248 919.656 310.433 919.012L308.611 918.367L306.428 918.025L304.636 917.058L302.198 915.105L299.776 913.797L296.131 913.152L293.086 911.844C293.086 911.844 291.886 911.844 290.063 911.199L288.241 910.554C288.241 910.554 286.418 913.161 283.981 912.507C281.558 911.844 285.203 911.844 281.558 911.844H277.913C277.913 911.844 277.313 909.89 274.868 909.89C272.423 909.89 269.401 911.199 269.401 911.199C269.401 911.199 265.756 912.507 263.333 912.507H258.473C255.451 913.152 253.628 915.759 253.628 915.759C253.628 915.759 251.183 917.068 249.368 916.423L247.546 915.759L245.123 916.423H242.078C242.078 916.423 241.478 917.068 239.056 917.068H236.618L231.773 920.339L230.551 922.946V925.554L228.128 926.217L225.691 924.264L223.268 920.993C223.268 920.993 222.046 919.685 220.231 919.04L218.408 918.395L214.163 917.732L211.118 919.685L210.518 922.302L209.296 924.909C209.296 924.909 208.096 926.217 206.273 925.554L204.451 924.909L202.006 924.264C202.006 924.264 198.983 921.647 197.161 921.647H195.338L191.693 922.311L187.433 925.563L183.788 928.19L180.758 930.143L178.321 928.19L174.676 926.881L171.653 927.526L168.608 930.143L166.186 930.788L162.541 930.143H160.103C156.458 929.479 155.258 929.479 153.436 930.143L151.613 930.788L149.791 934.059L147.346 935.348L145.523 938.619C142.501 935.348 144.721 936.287 143.386 936.05C142.591 935.917 142.291 935.68 142.148 935.443V1094.71H555.188L619.276 1094.43L535.898 911.863L535.891 911.777Z" fill="#2F3241" fill-opacity="0.4"/>
<path opacity="0.05" d="M535.891 911.777H534.593C534.593 911.777 534.091 910.165 532.163 909.871H530.693C528.466 910.108 526.088 911.132 526.088 911.132C526.088 911.132 522.443 912.441 520.021 912.441H515.161C512.138 913.086 510.316 915.693 510.316 915.693C510.316 915.693 507.878 917.001 506.056 916.357L504.233 915.693L501.811 916.357H498.766C498.766 916.357 498.166 917.002 495.743 917.002H493.298L488.453 920.273L487.231 922.88V924.956C486.788 925.042 486.271 925.051 485.678 924.843C484.891 924.568 483.541 924.283 482.258 924.046L479.941 920.927C479.941 920.927 478.718 919.618 476.903 918.974L475.081 918.329L472.898 917.988L471.106 917.02L468.668 915.067L466.246 913.759L462.601 913.114L459.556 911.806C459.556 911.806 458.356 911.806 456.533 911.161L454.711 910.516C454.711 910.516 452.888 913.124 450.451 912.469C448.028 911.806 451.673 911.806 448.028 911.806H444.383C444.383 911.806 443.881 910.194 441.953 909.9H440.483C438.256 910.137 435.878 911.161 435.878 911.161C435.878 911.161 432.233 912.469 429.811 912.469H424.951C421.928 913.114 420.106 915.721 420.106 915.721C420.106 915.721 417.668 917.03 415.846 916.385L414.023 915.721L411.601 916.385H408.556C408.556 916.385 408.346 916.594 407.716 916.774C407.251 916.907 406.561 917.03 405.526 917.03H403.088L398.768 919.941L397.276 918.338L394.853 917.03L392.416 915.077L389.993 913.768L386.348 913.124L383.303 911.815C383.303 911.815 382.103 911.815 380.281 911.17L378.458 910.526C378.458 910.526 376.636 913.133 374.198 912.479C371.776 911.815 375.421 911.815 371.776 911.815H368.131C368.131 911.815 367.531 909.862 365.086 909.862C362.641 909.862 359.618 911.17 359.618 911.17C359.618 911.17 355.973 912.479 353.551 912.479H348.691C345.668 913.124 343.846 915.731 343.846 915.731C343.846 915.731 341.408 917.039 339.586 916.395L337.763 915.731L335.341 916.395H332.296C332.296 916.395 331.696 917.039 329.273 917.039H326.828L321.983 920.311L320.761 922.918V924.994C320.318 925.08 319.801 925.089 319.208 924.881C318.421 924.606 317.071 924.321 315.788 924.084L313.471 920.965C313.471 920.965 312.248 919.656 310.433 919.012L308.611 918.367L306.428 918.025L304.636 917.058L302.198 915.105L299.776 913.797L296.131 913.152L293.086 911.844C293.086 911.844 291.886 911.844 290.063 911.199L288.241 910.554C288.241 910.554 286.418 913.161 283.981 912.507C281.558 911.844 285.203 911.844 281.558 911.844H277.913C277.913 911.844 277.313 909.89 274.868 909.89C272.423 909.89 269.401 911.199 269.401 911.199C269.401 911.199 265.756 912.507 263.333 912.507H258.473C255.451 913.152 253.628 915.759 253.628 915.759C253.628 915.759 251.183 917.068 249.368 916.423L247.546 915.759L245.123 916.423H242.078C242.078 916.423 241.478 917.068 239.056 917.068H236.618L231.773 920.339L230.551 922.946V925.554L228.128 926.217L225.691 924.264L223.268 920.993C223.268 920.993 222.046 919.685 220.231 919.04L218.408 918.395L214.163 917.732L211.118 919.685L210.518 922.302L209.296 924.909C209.296 924.909 208.096 926.217 206.273 925.554L204.451 924.909L202.006 924.264C202.006 924.264 198.983 921.647 197.161 921.647H195.338L191.693 922.311L187.433 925.563L183.788 928.19L180.758 930.143L178.321 928.19L174.676 926.881L171.653 927.526L168.608 930.143L166.186 930.788L162.541 930.143H160.103C156.458 929.479 155.258 929.479 153.436 930.143L151.613 930.788L149.791 934.059L147.346 935.348L145.523 938.619C142.501 935.348 144.721 936.287 143.386 936.05C142.591 935.917 142.291 935.68 142.148 935.443V1094.71H555.188L619.276 1094.43L535.898 911.863L535.891 911.777Z" fill="#B2D4FF"/>
<path opacity="0.2" d="M713.147 95.27L657.01 136.239L713.147 177.209V95.27Z" fill="#7B8CAE"/>
<path d="M713.273 95.2605L865.936 -16.1659L713.273 95.2605Z" fill="#B2D4FF"/>
<path opacity="0.1" d="M896.566 311.182L998.754 385.764V311.182H896.566Z" fill="#2F3241"/>
<path opacity="0.05" d="M998.754 311.144H1284.3V672.133H998.754V311.144Z" fill="#B2D4FF"/>
<path opacity="0.05" d="M1284.23 311.144H1569.78V672.133H1284.23V311.144Z" fill="#B2D4FF"/>
<path d="M713.154 -49.8062H998.829V311.182H713.154V-49.8062Z" fill="#2F3241"/>
<path opacity="0.2" d="M998.754 385.764L1284.3 594.185V311.144H998.754V385.764Z" fill="#54617A"/>
<path opacity="0.1" d="M911.994 -49.8062L713.146 95.2605V177.399L896.521 311.182H998.829V-49.8062H911.994Z" fill="#5B648F"/>
<path opacity="0.1" d="M713.244 671.905H998.792V1032.89H713.244V671.905ZM-422.631 673.043H713.124V1034.03H-422.631V673.043Z" fill="#54617A"/>
<path d="M1284.3 616.163C1282.01 615.67 1279.1 615.272 1279.1 615.272L1275.84 612.475L1273.24 609.678L1270.64 608.275L1268.02 606.17L1265.42 604.767L1261.5 604.075L1258.24 602.671C1258.24 602.671 1256.95 602.671 1254.99 601.979L1253.03 601.287C1253.03 601.287 1251.08 604.084 1248.46 603.392C1245.86 602.681 1249.77 602.681 1245.86 602.681H1241.95C1241.95 602.681 1241.3 600.576 1238.69 600.576C1236.07 600.576 1232.82 601.979 1232.82 601.979C1232.82 601.979 1228.91 603.382 1226.31 603.382H1221.09C1217.84 604.075 1215.89 606.872 1215.89 606.872C1215.89 606.872 1213.27 608.275 1211.31 607.583L1209.35 606.872L1206.75 607.583H1203.49C1203.49 607.583 1202.84 608.275 1200.24 608.275H1197.62L1192.42 611.783L1191.11 614.58V616.808C1190.63 616.903 1190.08 616.913 1189.44 616.685C1188.59 616.382 1187.15 616.078 1185.77 615.832L1183.28 612.485C1183.28 612.485 1181.97 611.081 1180.01 610.38L1178.06 609.688L1175.72 609.318L1173.8 608.275L1171.18 606.17L1168.58 604.767L1164.66 604.075L1161.4 602.671C1161.4 602.671 1160.11 602.671 1158.15 601.979L1156.19 601.287C1156.19 601.287 1154.24 604.084 1151.62 603.392C1149.02 602.681 1152.93 602.681 1149.02 602.681H1145.11C1145.11 602.681 1144.46 600.576 1141.85 600.576C1139.23 600.576 1135.98 601.979 1135.98 601.979C1135.98 601.979 1132.07 603.382 1129.47 603.382H1124.25C1121 604.075 1119.05 606.872 1119.05 606.872C1119.05 606.872 1116.43 608.275 1114.47 607.583L1112.51 606.872L1109.91 607.583H1106.65C1106.65 607.583 1106 608.275 1103.4 608.275H1100.78L1095.58 611.783L1094.27 614.58V617.377L1091.66 618.088L1089.05 615.983L1086.44 612.475C1086.44 612.475 1085.14 611.072 1083.18 610.37L1081.22 609.678L1076.66 608.967L1073.4 611.072L1072.76 613.888L1071.44 616.685C1071.44 616.685 1070.15 618.088 1068.2 617.377L1066.24 616.685L1063.62 615.993C1063.62 615.993 1060.37 613.177 1058.42 613.177H1056.46L1052.55 613.888L1047.98 617.377L1044.07 620.193L1040.82 622.298L1038.2 620.193L1034.3 618.79L1031.05 619.482L1027.79 622.298L1025.18 622.99L1021.28 622.298H1018.66C1014.75 621.587 1013.45 621.587 1011.5 622.298L1009.55 622.99L1007.59 626.498L1004.97 627.883L1003.01 631.391C999.767 627.883 1002.15 628.888 1000.72 628.632C998.687 628.281 999.655 627.333 998.777 627.153V672.123H1284.32V616.154L1284.3 616.163Z" fill="#2F3241" fill-opacity="0.4"/>
</g>
<path opacity="0.1" d="M427.582 312.055H713.13V673.043H427.582V312.055Z" fill="#2F3241"/>
<path d="M-184.875 312.055H427.583V673.043H-184.875V312.055Z" fill="#2F3241" fill-opacity="0.4"/>
<path opacity="0.1" d="M-306.547 1034.03H590.678L425.813 673.043H-141.689L-306.547 1034.03Z" fill="#2F3241"/>
<path opacity="0.2" d="M260.956 312.055H23.1755L-141.689 673.043H425.813L260.956 312.055Z" fill="#54617A"/>
<path opacity="0.1" d="M1391.17 672.133H1481.05V311.144H1284.23V594.072L1391.17 672.133Z" fill="#2F3241"/>
<path d="M1470.35 612.485L1467.75 609.688L1465.15 608.284L1462.53 606.18L1459.93 604.776L1456.01 604.084L1452.75 602.681C1452.75 602.681 1451.46 602.681 1449.5 601.989L1447.55 601.297C1447.55 601.297 1445.59 604.094 1442.97 603.401C1440.37 602.69 1444.28 602.69 1440.37 602.69H1436.46C1436.46 602.69 1435.82 600.585 1433.2 600.585C1430.58 600.585 1427.33 601.989 1427.33 601.989C1427.33 601.989 1423.42 603.392 1420.82 603.392H1415.6C1412.36 604.084 1410.4 606.881 1410.4 606.881C1410.4 606.881 1407.78 608.284 1405.82 607.592L1403.87 606.881L1401.26 607.592H1398C1398 607.592 1397.36 608.284 1394.75 608.284H1392.14L1386.93 611.793L1385.62 614.59V616.818C1385.15 616.913 1384.59 616.922 1383.95 616.695C1383.11 616.391 1381.66 616.088 1380.28 615.841L1377.79 612.485C1377.79 612.485 1376.48 611.081 1374.53 610.38L1372.57 609.688L1370.23 609.318L1368.31 608.275L1365.69 606.17L1363.09 604.767L1359.17 604.075L1355.91 602.671C1355.91 602.671 1354.62 602.671 1352.66 601.979L1350.71 601.287C1350.71 601.287 1348.75 604.084 1346.13 603.392C1343.53 602.681 1347.44 602.681 1343.53 602.681H1339.62C1339.62 602.681 1338.98 600.576 1336.36 600.576C1333.74 600.576 1330.49 601.979 1330.49 601.979C1330.49 601.979 1326.58 603.383 1323.98 603.383H1318.76C1315.52 604.075 1313.56 606.872 1313.56 606.872C1313.56 606.872 1310.94 608.275 1308.98 607.583L1307.03 606.872L1304.42 607.583H1302.75L1391.18 672.133H1478.81V616.164C1476.53 615.67 1473.62 615.272 1473.62 615.272L1470.35 612.475V612.485ZM142.006 34.5315C144.293 35.0246 147.203 35.4228 147.203 35.4228L150.466 38.2198L153.068 41.0169L155.671 42.4201L158.288 44.525L160.891 45.9283L164.806 46.6204L168.068 48.0237C168.068 48.0237 169.358 48.0237 171.316 48.7158L173.273 49.408C173.273 49.408 175.231 46.611 177.848 47.3031C180.451 48.0142 176.536 48.0142 180.451 48.0142H184.366C184.366 48.0142 185.011 50.1191 187.628 50.1191C190.246 50.1191 193.493 48.7158 193.493 48.7158C193.493 48.7158 197.408 47.3126 200.011 47.3126H205.231C208.478 46.6204 210.436 43.8234 210.436 43.8234C210.436 43.8234 213.053 42.4201 215.011 43.1123L216.968 43.8234L219.571 43.1123H222.833C222.833 43.1123 223.478 42.4201 226.081 42.4201H228.698L233.903 38.912L235.216 36.115V33.8868C235.688 33.792 236.243 33.7825 236.881 34.0101C237.728 34.3135 239.176 34.6169 240.556 34.8634L243.046 38.2104C243.046 38.2104 244.358 39.6136 246.308 40.3153L248.266 41.0074L250.606 41.3772L252.526 42.4201L255.143 44.525L257.746 45.9283L261.661 46.6204L264.923 48.0237C264.923 48.0237 266.213 48.0237 268.171 48.7158L270.128 49.408C270.128 49.408 272.086 46.611 274.703 47.3031C277.306 48.0142 273.391 48.0142 277.306 48.0142H281.221C281.221 48.0142 281.866 50.1191 284.483 50.1191C287.101 50.1191 290.348 48.7158 290.348 48.7158C290.348 48.7158 294.263 47.3126 296.866 47.3126H302.086C305.333 46.6204 307.291 43.8234 307.291 43.8234C307.291 43.8234 309.908 42.4201 311.866 43.1123L313.823 43.8234L316.426 43.1123H319.688C319.688 43.1123 320.333 42.4201 322.936 42.4201H325.553L330.758 38.912L332.071 36.115V33.3179L334.673 32.6068L337.291 34.7117L339.893 38.2198C339.893 38.2198 341.206 39.6231 343.156 40.3247L345.113 41.0169L349.673 41.728L352.936 39.6231L353.581 36.8071L354.893 34.0101C354.893 34.0101 356.183 32.6068 358.141 33.3179L360.098 34.0101L362.716 34.7022C362.716 34.7022 365.963 37.5182 367.921 37.5182H369.878L373.793 36.8071L378.368 33.3179L382.283 30.5019L385.531 28.397L388.148 30.5019L392.063 31.9052L395.311 31.213L398.573 28.397L401.176 27.7049L405.091 28.397H407.708C411.623 29.1081 412.913 29.1081 414.871 28.397L416.828 27.7049L418.786 24.1967L421.403 22.8124L423.361 19.3043C426.608 22.8124 424.223 21.8074 425.656 22.0634C427.688 22.4142 426.721 23.3624 427.598 23.5425V-21.4282H142.006V34.541V34.5315Z" fill="#2F3241" fill-opacity="0.4"/>
<path opacity="0.1" d="M477.586 176.716V158.767H491.783V176.716H477.586Z" fill="#2F3241"/>
<path d="M491.783 194.664V176.716H505.981V194.664H491.783Z" fill="#2F3241"/>
<path opacity="0.1" d="M505.98 176.716V158.767H520.178V176.716H505.98Z" fill="#2F3241"/>
<path opacity="0.1" d="M520.156 158.786V140.838H534.354V158.786H520.156Z" fill="#2F3241"/>
<path d="M1149.78 444.34V426.392H1163.98V444.34H1149.78Z" fill="#57D9A3"/>
<path d="M1163.97 426.373V408.424H1178.17V426.373H1163.97Z" fill="#2F3241"/>
<path opacity="0.1" d="M1178.18 444.34V426.392H1192.37V444.34H1178.18Z" fill="#2F3241"/>
<path d="M1178.17 408.424V390.476H1192.37V408.424H1178.17Z" fill="white"/>
<path d="M319.357 808.638V790.689H333.555V808.638H319.357Z" fill="#57D9A3"/>
<path d="M333.555 826.586V808.638H347.752V826.586H333.555Z" fill="#2F3241"/>
<path d="M347.752 808.638V790.689H361.95V808.638H347.752ZM319.357 844.554V826.605H333.555V844.554H319.357Z" fill="#2F3241" fill-opacity="0.4"/>
</g>
<defs>
<clipPath id="clip0_82_2537">
<rect width="1440" height="1024" fill="white"/>
</clipPath>
</defs>
</svg>
