<svg width="17" height="16" viewBox="0 0 17 16" fill="none" xmlns="http://www.w3.org/2000/svg"><path d="M2.17773 3.63663H15.2686M13.8141 3.63663V13.8184C13.8141 14.2042 13.6609 14.5742 13.3881 14.847C13.1153 15.1197 12.7453 15.273 12.3596 15.273H5.08683C4.70106 15.273 4.33109 15.1197 4.05831 14.847C3.78553 14.5742 3.63228 14.2042 3.63228 13.8184V3.63663M5.8141 3.63663V2.18208C5.8141 1.79632 5.96734 1.42635 6.24012 1.15357C6.5129 0.880785 6.88287 0.727539 7.26864 0.727539H10.1777C10.5635 0.727539 10.9335 0.880785 11.2063 1.15357C11.479 1.42635 11.6323 1.79632 11.6323 2.18208V3.63663M7.26864 7.27299V11.6366M10.1777 7.27299V11.6366" stroke="#FF6060" stroke-width="1.45455" stroke-linecap="round" stroke-linejoin="round"/></svg>