<svg width="24" height="24" viewBox="0 0 24 24" fill="none" xmlns="http://www.w3.org/2000/svg">
<path d="M0.365625 0.0831299C0.164062 0.190943 0 0.467506 0 0.692505C0 0.917505 0.154687 1.17532 0.365625 1.29251C0.54375 1.39094 0.6 1.39563 1.56562 1.39563C2.12344 1.39563 2.57812 1.40969 2.57812 1.42844C2.57812 1.58782 5.22187 18.6363 5.27812 18.8331C5.48906 19.5831 6.08906 20.3003 6.78281 20.6378C7.10625 20.7925 7.16719 20.8394 7.14375 20.9191C7.13437 20.9706 7.09219 21.13 7.05469 21.2706C6.96562 21.5941 6.96562 21.9175 7.05469 22.2972C7.15312 22.705 7.33125 23.0238 7.64062 23.3331C8.73281 24.4206 10.5234 24.1019 11.1891 22.7003C11.3391 22.3816 11.3625 22.2878 11.3766 21.8894C11.3906 21.5706 11.3766 21.3691 11.3297 21.2097L11.2594 20.9894H13.7109H16.1578L16.0969 21.2331C15.8578 22.1472 16.275 23.1691 17.0812 23.6566C18.8344 24.7113 20.9484 23.0425 20.325 21.0925C20.2922 20.9894 20.2922 20.9894 20.8266 20.9894C21.2906 20.9894 21.3844 20.9753 21.5625 20.8816C22.0312 20.6331 22.0641 19.9816 21.6234 19.6909C21.5016 19.6113 21.1453 19.6066 14.625 19.5831L7.75781 19.5597L7.52812 19.4519C7.00312 19.2128 6.64219 18.7394 6.58125 18.2097L6.54844 17.9425L13.5047 17.9331L20.4609 17.9191L20.775 17.7925C21.675 17.4316 22.3687 16.6909 22.6125 15.8331C22.65 15.6925 22.9828 13.6347 23.3484 11.2628C24.0703 6.56125 24.0656 6.58469 23.8547 6.00344C23.5547 5.18782 22.8656 4.65344 21.9656 4.53625C21.7734 4.51282 17.9953 4.48938 13.0453 4.48938C8.32031 4.48938 4.45312 4.47063 4.45312 4.45188C4.45312 4.42844 4.31719 3.51907 4.14844 2.42219C3.825 0.336256 3.82031 0.317505 3.54375 0.111256C3.42187 0.0175056 3.34687 0.0128174 1.97812 0.00344276C0.61875 -0.00593185 0.529687 -0.00124359 0.365625 0.0831299ZM9.98437 8.21594V10.5363H7.69219H5.4L5.37187 10.3816C5.33906 10.1941 4.6875 5.95188 4.6875 5.91907C4.6875 5.905 5.87812 5.89563 7.33594 5.89563H9.98437V8.21594ZM16.0219 8.22532L16.0312 10.5363H13.7109H11.3906V8.24875C11.3906 6.98782 11.4047 5.9425 11.4234 5.92844C11.4375 5.90969 12.4781 5.90032 13.7297 5.905L16.0078 5.91907L16.0219 8.22532ZM22.1062 5.99875C22.3453 6.13 22.5375 6.38313 22.5703 6.61282C22.5937 6.76282 22.5281 7.32532 22.3406 8.54875C22.1953 9.50032 22.0641 10.3347 22.05 10.405L22.0219 10.5363H19.7297H17.4375V8.21594V5.89094L19.7016 5.905C21.7219 5.91907 21.975 5.92844 22.1062 5.99875ZM9.98437 14.2394V16.5363H8.15625H6.32812L6.30469 16.4284C6.27656 16.3019 5.625 12.055 5.625 11.9894C5.625 11.9566 6.35156 11.9425 7.80469 11.9425H9.98437V14.2394ZM16.0312 14.2394V16.5363H13.7109H11.3906V14.2394V11.9425H13.7109H16.0312V14.2394ZM21.7969 12.0034C21.7969 12.0409 21.6797 12.8238 21.5391 13.7472C21.3656 14.8628 21.2437 15.5003 21.1781 15.6503C21.0516 15.9503 20.6156 16.3581 20.3156 16.4613C20.1328 16.5222 19.8656 16.5363 18.7641 16.5363H17.4375V14.2394V11.9425H19.6172C21.3937 11.9425 21.7969 11.9519 21.7969 12.0034ZM9.54844 21.0644C10.0781 21.3175 10.1344 22.1331 9.64219 22.4378C9.30937 22.6441 8.9625 22.6206 8.68594 22.3816C8.37656 22.1097 8.31094 21.7628 8.49844 21.4066C8.69531 21.0363 9.15937 20.8816 9.54844 21.0644ZM18.6141 21.0831C19.0547 21.3081 19.1625 21.9081 18.8297 22.2878C18.5625 22.5925 18.2344 22.6581 17.8734 22.4847C17.5781 22.3441 17.4187 22.0534 17.4469 21.7159C17.4937 21.1347 18.0844 20.8159 18.6141 21.0831Z" fill="#A8A8A8" fill-opacity="0.62"/>
</svg>
