<svg width="24" height="23" viewBox="0 0 24 23" fill="none" xmlns="http://www.w3.org/2000/svg">
<path d="M8.18219 0.0326157C6.7314 0.146503 5.26653 0.591208 4.0458 1.28538C1.78746 2.56526 0.393011 4.49593 0.0643534 6.80623C-0.10467 7.95595 0.0596583 9.10568 0.552644 10.2554C0.885997 11.0255 1.17709 11.4919 1.75459 12.159C2.25227 12.7338 2.71709 13.1514 3.38849 13.6124L3.88148 13.9486L2.78282 16.3565C2.17715 17.6798 1.69356 18.7699 1.70295 18.7861C1.71234 18.797 2.71239 18.016 3.92373 17.0507C5.13037 16.08 6.21025 15.2231 6.31824 15.1417L6.51543 14.9899L7.09293 15.1038C8.61414 15.402 9.9006 15.3858 11.3796 15.055C13.4454 14.594 15.3328 13.4605 16.5207 11.98C17.5677 10.6621 18.0889 9.23041 18.0889 7.65225C18.0889 5.07622 16.6146 2.73338 14.0792 1.29623C12.3561 0.320047 10.2574 -0.130081 8.18219 0.0326157ZM6.19147 7.38109V8.49285H5.25245H4.31343V7.38109V6.26933H5.25245H6.19147V7.38109ZM10.0415 7.38109V8.49285H9.10243H8.16341V7.38109V6.26933H9.10243H10.0415V7.38109ZM13.9384 7.38109V8.49285H12.9759H12.0134V7.38109V6.26933H12.9759H13.9384V7.38109Z" fill="#A8A8A8" fill-opacity="0.62"/>
<path d="M19.4786 6.11746C19.4786 6.12831 19.5114 6.30727 19.549 6.51336C19.5866 6.72486 19.6335 7.17499 19.6476 7.51665C19.7603 9.83237 18.8166 12.0613 16.9761 13.8401C15.0558 15.7003 12.1401 16.8663 9.33713 16.9043L8.75024 16.9097L9.00848 17.1808C9.52963 17.7232 10.4733 18.3848 11.2621 18.759C12.6002 19.3989 13.8491 19.6755 15.4408 19.6864C16.3751 19.6918 16.685 19.6593 17.516 19.4695L17.8728 19.3881L20.1453 21.1995C21.3895 22.1973 22.4224 23.0054 22.4271 23C22.4365 22.9891 21.9764 21.9533 21.4036 20.6951C20.8308 19.4369 20.3706 18.4065 20.38 18.3957C20.3847 18.3902 20.5725 18.2655 20.7932 18.1245C22.3473 17.0995 23.4882 15.5105 23.8826 13.813C23.9859 13.3629 24 13.1839 24 12.4789C24 11.7739 23.9859 11.5949 23.8779 11.1394C23.5164 9.56121 22.6243 8.22167 21.2204 7.1316C20.6711 6.70317 19.4786 6.009 19.4786 6.11746Z" fill="#A8A8A8" fill-opacity="0.62"/>
</svg>
