<svg xmlns="http://www.w3.org/2000/svg" width="24" height="24" viewBox="0 0 24 24" fill="none">
<path opacity="0.994" fill-rule="evenodd" clip-rule="evenodd" d="M11.8837 0.960938C12.063 0.987844 12.2348 1.04253 12.3993 1.125C15.2431 2.39062 18.0868 3.65625 20.9306 4.92188C20.9851 7.28573 20.9929 9.65292 20.954 12.0234C20.9056 12.5793 20.8119 13.1262 20.6728 13.6641C18.4398 12.6227 16.3226 12.818 14.3212 14.25C12.3786 15.89 11.6677 17.9603 12.1884 20.4609C12.3993 21.2264 12.7352 21.9295 13.1962 22.5703C12.8143 22.7654 12.408 22.906 11.9774 22.9922C9.23652 22.2591 7.04118 20.7435 5.3915 18.4453C4.03166 16.5384 3.23478 14.4134 3.00088 12.0703C2.96195 9.68419 2.96976 7.30139 3.02432 4.92188C5.99197 3.62322 8.9451 2.3029 11.8837 0.960938Z" fill="#727377"/>
<path opacity="0.978" fill-rule="evenodd" clip-rule="evenodd" d="M17.2578 14.9766C17.9453 14.9766 18.6328 14.9766 19.3203 14.9766C19.3203 15.9765 19.3203 16.9766 19.3203 17.9766C20.3203 17.9766 21.3203 17.9766 22.3203 17.9766C22.3203 18.6484 22.3203 19.3203 22.3203 19.9922C21.3203 19.9922 20.3203 19.9922 19.3203 19.9922C19.3203 20.9922 19.3203 21.9922 19.3203 22.9922C18.6328 22.9922 17.9453 22.9922 17.2578 22.9922C17.2578 21.9922 17.2578 20.9922 17.2578 19.9922C16.2578 19.9922 15.2578 19.9922 14.2578 19.9922C14.2578 19.3203 14.2578 18.6484 14.2578 17.9766C15.2578 17.9766 16.2578 17.9766 17.2578 17.9766C17.2578 16.9766 17.2578 15.9765 17.2578 14.9766Z" fill="#727377"/>
</svg>