<svg width="23" height="23" viewBox="0 0 23 23" fill="none" xmlns="http://www.w3.org/2000/svg">
<path d="M8.98437 0.0172787C8.92148 0.030756 8.72383 0.0801697 8.54414 0.129583C7.39414 0.435053 6.45527 1.37392 6.10488 2.55986C6.02402 2.83388 6.00156 3.03603 5.98809 3.79521L5.96562 4.70712H4.21816H2.4707L2.44824 4.80595C2.35391 5.22822 0 20.1423 0 20.3175C0.00449219 21.5393 0.929883 22.6714 2.13379 22.9229C2.37187 22.9724 2.79414 22.9903 3.8543 22.9903H5.26035L5.13008 22.7972C4.91894 22.4917 4.68984 22.0065 4.55957 21.5843L4.43828 21.1935H3.51289C2.91543 21.1935 2.5291 21.1755 2.40781 21.1395C2.15625 21.0632 1.91816 20.8116 1.8418 20.5421C1.7834 20.331 1.81934 20.0929 2.89297 13.5163C3.50391 9.76982 4.01602 6.66122 4.02949 6.60283C4.05195 6.504 4.05195 6.504 5.01328 6.504H5.97461V7.40244V8.30087H6.87305H7.77148V7.40244V6.504H8.71933H9.66269L9.73008 6.3333C9.88281 5.95146 10.1928 5.39892 10.4309 5.07548L10.6914 4.72958L9.23144 4.71611L7.77148 4.70712V4.01982C7.77148 3.20673 7.83437 2.90576 8.07695 2.55087C8.7373 1.58056 10.1254 1.54462 10.8352 2.48349C11.0777 2.80243 11.1541 3.07197 11.1855 3.6874L11.208 4.21298L11.5225 3.9749C11.8818 3.70986 12.3311 3.44931 12.7084 3.29658C12.951 3.20224 12.96 3.19326 12.9465 3.04052C12.9195 2.74404 12.7533 2.21396 12.5781 1.88154C12.1334 1.02802 11.3473 0.385639 10.4219 0.125092C10.0895 0.030756 9.24043 -0.032135 8.98437 0.0172787Z" fill="#A8A8A8" fill-opacity="0.62"/>
<path d="M14.1953 4.73408C12.7578 5.0126 11.7156 5.929 11.3158 7.27666C11.226 7.57314 11.2125 7.73037 11.1946 8.84892L11.1766 10.0978L9.39768 10.1067L7.61428 10.1202L6.90901 14.9269C6.51819 17.5683 6.19026 19.9042 6.17229 20.1153C6.07795 21.4271 6.99885 22.6534 8.28811 22.9229C8.75979 23.0218 20.3946 23.0218 20.8662 22.9229C22.124 22.6579 23.0674 21.4405 22.9865 20.1827C22.9776 20.0075 22.6586 17.6716 22.2768 14.9808L21.585 10.0978H19.8914H18.2024L18.1844 8.84892C18.1664 7.73037 18.153 7.57314 18.0631 7.27666C17.7082 6.08623 16.7963 5.17431 15.6239 4.8374C15.3049 4.74756 14.4559 4.68467 14.1953 4.73408ZM15.2735 6.61631C15.561 6.71514 15.8979 6.98467 16.091 7.26767C16.3561 7.654 16.3965 7.89658 16.3965 9.07353V10.0978H14.685H12.9735L12.9914 8.96123C13.0094 8.03584 13.0229 7.79326 13.0858 7.62705C13.2655 7.15537 13.7551 6.70615 14.2403 6.57138C14.5323 6.49053 14.9725 6.5085 15.2735 6.61631ZM11.1856 12.7931V13.6915H12.084H12.9824V12.7931V11.8946H14.6895H16.3965V12.7931V13.6915H17.2949H18.1934V12.7931V11.8946H19.1143C19.6219 11.8946 20.0352 11.9081 20.0352 11.9261C20.0352 11.9485 20.3002 13.8442 20.6237 16.1487C21.1807 20.0839 21.2121 20.3489 21.1582 20.5466C21.0819 20.8116 20.8393 21.0632 20.5922 21.1396C20.3227 21.2204 8.83166 21.2204 8.56213 21.1396C8.31057 21.0632 8.07249 20.8116 7.99612 20.5466C7.94221 20.3444 7.96916 20.1108 8.53069 16.2565C8.85862 14.0194 9.13264 12.1192 9.15061 12.0384L9.17307 11.8946H10.1793H11.1856V12.7931Z" fill="#A8A8A8" fill-opacity="0.62"/>
</svg>
