<svg width="24" height="24" viewBox="0 0 24 24" fill="none" xmlns="http://www.w3.org/2000/svg">
<path opacity="0.937" fill-rule="evenodd" clip-rule="evenodd" d="M3.44515 1.38281C7.55454 1.375 11.6639 1.38281 15.7733 1.40625C16.028 1.48919 16.2077 1.65325 16.3123 1.89844C16.3436 4.39844 16.3436 6.89845 16.3123 9.39844C16.1406 9.83672 15.8203 10.0008 15.3514 9.89063C15.105 9.78488 14.9409 9.60516 14.8592 9.35156C14.8358 7.19536 14.828 5.03911 14.8358 2.88281C11.3514 2.88281 7.86701 2.88281 4.38265 2.88281C4.38265 8.9453 4.38265 15.0078 4.38265 21.0703C7.86701 21.0703 11.3514 21.0703 14.8358 21.0703C14.828 18.8203 14.8358 16.5703 14.8592 14.3203C15.063 13.747 15.4459 13.5829 16.0077 13.8281C16.1451 13.9343 16.2467 14.0671 16.3123 14.2266C16.3436 16.836 16.3436 19.4453 16.3123 22.0547C16.2077 22.2999 16.028 22.464 15.7733 22.5469C11.6639 22.5781 7.55454 22.5781 3.44515 22.5469C3.24297 22.4857 3.07891 22.3685 2.95297 22.1953C2.87507 15.4323 2.85944 8.66667 2.90609 1.89844C3.01917 1.65245 3.19885 1.48058 3.44515 1.38281Z" fill="#363E4F"/>
<path opacity="0.931" fill-rule="evenodd" clip-rule="evenodd" d="M18.0705 7.66409C18.4279 7.59687 18.717 7.70623 18.9376 7.99221C19.7857 9.11004 20.6451 10.2194 21.5158 11.3203C21.8595 11.7578 21.8595 12.1954 21.5158 12.6328C20.6451 13.7337 19.7857 14.8431 18.9376 15.961C18.5979 16.3254 18.215 16.3801 17.7892 16.125C17.5036 15.7791 17.4802 15.4119 17.7189 15.0235C18.3219 14.2783 18.9078 13.5206 19.4767 12.75C15.8049 12.7344 12.1329 12.7188 8.46109 12.7032C7.92179 12.4327 7.79677 12.0264 8.08609 11.4844C8.19863 11.3877 8.3236 11.3096 8.46109 11.25C12.1329 11.2344 15.8049 11.2188 19.4767 11.2032C18.8154 10.3725 18.1825 9.52095 17.5783 8.64846C17.4711 8.17521 17.6352 7.84709 18.0705 7.66409Z" fill="#363E4F"/>
</svg>
