<svg width="24" height="22" viewBox="0 0 24 22" fill="none" xmlns="http://www.w3.org/2000/svg">
<path d="M9.12353 0.121794C8.88526 0.259459 8.7423 0.428894 8.64699 0.704225L8.57816 0.905428L7.41859 0.926608C5.97311 0.953082 5.63953 1.00074 5.08887 1.27077C4.42172 1.59905 3.86576 2.20266 3.59043 2.90158C3.53219 3.04983 3.32569 4.16175 3.1139 5.51193C2.9074 6.80387 2.73267 7.91578 2.72208 7.97932C2.7062 8.05874 2.73267 8.1011 2.81209 8.12228C2.97623 8.16464 3.65397 8.15934 3.7228 8.11169C3.75457 8.09051 3.95048 7.03684 4.15169 5.76608C4.56998 3.17691 4.60704 3.04983 5.06769 2.59448C5.4701 2.18678 5.80897 2.05441 6.57672 2.00146C6.92617 1.97498 7.52979 1.96969 7.91631 1.99087L8.62052 2.02264L8.69994 2.19207C8.82172 2.42504 8.93291 2.53624 9.1553 2.65272C9.34062 2.74803 9.50476 2.75332 11.951 2.75332C14.3972 2.75332 14.5613 2.74803 14.7466 2.65272C14.9743 2.53624 15.0802 2.42504 15.202 2.18148L15.292 2.00675L16.5998 2.02264C17.8918 2.03852 17.9129 2.03852 18.2095 2.18148C18.3789 2.2609 18.6383 2.44622 18.7813 2.59448C19.2419 3.04983 19.279 3.17691 19.6973 5.76608C19.8985 7.03684 20.0944 8.09051 20.1262 8.11169C20.195 8.15934 20.518 8.16464 20.878 8.12228C21.1163 8.09051 21.1428 8.07463 21.1269 7.97402C21.1163 7.91578 20.9416 6.80387 20.7351 5.51193C20.5233 4.16175 20.3168 3.04983 20.2586 2.90158C20.0044 2.25561 19.4379 1.61494 18.8395 1.30784C18.2306 0.984851 18.04 0.953082 16.6104 0.921313L15.3185 0.889544L15.2496 0.69893C15.1596 0.428894 15.0167 0.254165 14.7784 0.121794C14.5719 1.33514e-05 14.5666 1.33514e-05 11.951 1.33514e-05C9.33532 1.33514e-05 9.33003 1.33514e-05 9.12353 0.121794Z" fill="#A8A8A8" fill-opacity="0.62"/>
<path d="M0.768299 8.94825C0.371187 9.07003 0.0482026 9.4142 0.000549198 9.77954C-0.0153353 9.9172 0.312944 11.7545 1.03834 15.5138C1.62606 18.5584 2.11319 21.1158 2.12907 21.2058C2.17143 21.4387 2.39381 21.7247 2.64796 21.8729L2.87035 22H11.9245H20.9787L21.201 21.8729C21.4552 21.7247 21.6776 21.4387 21.7199 21.2058C21.7358 21.1158 22.2229 18.5584 22.8107 15.5138C23.5361 11.7545 23.8643 9.9172 23.8484 9.77954C23.8114 9.50421 23.5943 9.2077 23.319 9.04885L23.0966 8.92178L12.0039 8.91119C5.90428 8.90589 0.847722 8.92178 0.768299 8.94825ZM5.49658 11.961L5.65013 12.1146V15.4344V18.7543L5.49658 18.9078C5.27949 19.1249 4.9618 19.1249 4.74471 18.9078L4.59116 18.7543V15.4344V12.1146L4.74471 11.961C4.8665 11.8392 4.94592 11.8075 5.12065 11.8075C5.29538 11.8075 5.3748 11.8392 5.49658 11.961ZM8.99117 11.961L9.14472 12.1146V15.4344V18.7543L8.99117 18.9078C8.77408 19.1249 8.45639 19.1249 8.2393 18.9078L8.08575 18.7543V15.4344V12.1146L8.2393 11.961C8.36108 11.8392 8.4405 11.8075 8.61523 11.8075C8.78996 11.8075 8.86938 11.8392 8.99117 11.961ZM12.274 11.961L12.4275 12.1146V15.4344V18.7543L12.274 18.9078C12.0569 19.1249 11.7392 19.1249 11.5221 18.9078L11.3685 18.7543V15.4344V12.1146L11.5221 11.961C11.6439 11.8392 11.7233 11.8075 11.898 11.8075C12.0728 11.8075 12.1522 11.8392 12.274 11.961ZM15.7156 11.961L15.8691 12.1146V15.4344V18.7543L15.7156 18.9078C15.4985 19.1249 15.1808 19.1249 14.9637 18.9078L14.8102 18.7543V15.4344V12.1146L14.9637 11.961C15.0855 11.8392 15.1649 11.8075 15.3397 11.8075C15.5144 11.8075 15.5938 11.8392 15.7156 11.961ZM19.1572 11.961L19.3108 12.1146V15.4344V18.7543L19.1572 18.9078C18.9401 19.1249 18.6225 19.1249 18.4054 18.9078L18.2518 18.7543V15.4344V12.1146L18.4054 11.961C18.5271 11.8392 18.6066 11.8075 18.7813 11.8075C18.956 11.8075 19.0355 11.8392 19.1572 11.961Z" fill="#A8A8A8" fill-opacity="0.62"/>
</svg>
