<svg width="27" height="27" viewBox="0 0 27 27" fill="none" xmlns="http://www.w3.org/2000/svg">
<path opacity="0.964" fill-rule="evenodd" clip-rule="evenodd" d="M12.5768 1.71389C16.5566 1.55575 19.8525 2.962 22.4645 5.93264C25.0743 9.26082 25.8126 12.9698 24.6793 17.0596C23.3522 20.918 20.7594 23.5107 16.901 24.8379C12.261 26.0708 8.22685 25.025 4.79849 21.7002C1.64792 18.1118 0.804169 14.0337 2.26724 9.46585C3.75569 5.70979 6.43636 3.25765 10.3092 2.1094C11.0637 1.92491 11.8196 1.79307 12.5768 1.71389ZM12.6295 3.45413C16.9819 3.35721 20.2251 5.18533 22.359 8.9385C23.9658 12.361 23.8076 15.7008 21.8844 18.958C19.8586 21.949 17.0286 23.5135 13.3942 23.6514C9.01318 23.4226 5.90185 21.3308 4.06021 17.376C2.65199 13.5382 3.23207 10.0402 5.80044 6.88186C7.6347 4.8617 9.91109 3.71912 12.6295 3.45413Z" fill="#373F51"/>
<path opacity="0.97" fill-rule="evenodd" clip-rule="evenodd" d="M12.8934 6.82915C14.2904 6.75264 15.477 7.20963 16.453 8.20025C17.537 9.59265 17.66 11.0692 16.8222 12.6299C16.3341 13.2763 15.7892 13.874 15.1874 14.4229C14.9497 14.7927 14.7387 15.1795 14.5546 15.5831C14.3349 15.8382 14.0536 15.9613 13.7108 15.9522C13.171 15.9371 12.7316 15.7261 12.3925 15.3194C12.2424 14.9078 12.2775 14.5035 12.4979 14.1065C12.6473 13.8075 12.8231 13.5263 13.0253 13.2627C13.5686 12.6666 14.1311 12.0866 14.7128 11.5225C15.2684 10.4278 14.9608 9.69833 13.7899 9.33404C12.9587 9.16508 12.3874 9.47273 12.0761 10.2569C11.961 10.6642 11.838 11.0685 11.7069 11.4698C11.5835 11.6456 11.4165 11.7599 11.2059 11.8126C9.9438 12.0443 9.37253 11.5257 9.49208 10.2569C9.85299 8.33451 10.9868 7.19191 12.8934 6.82915Z" fill="#373F51"/>
<path opacity="0.954" fill-rule="evenodd" clip-rule="evenodd" d="M13.1569 17.3232C14.4481 17.2519 14.9843 17.8495 14.7653 19.1162C14.3833 19.8589 13.7945 20.0962 12.9987 19.8281C12.3001 19.4201 12.0804 18.8313 12.3395 18.0615C12.5224 17.7114 12.7949 17.4653 13.1569 17.3232Z" fill="#373F51"/>
</svg>
