<?xml version="1.0" encoding="UTF-8"?>
<svg xmlns="http://www.w3.org/2000/svg" xmlns:xlink="http://www.w3.org/1999/xlink" width="30px" height="30px" viewBox="0 0 30 30" version="1.1">
<g id="surface1">
<path style=" stroke:none;fill-rule:nonzero;fill:rgb(0%,0%,0%);fill-opacity:1;" d="M 5.332031 6.179688 L 5.332031 12.363281 L 7.148438 12.363281 L 7.148438 1.757812 L 26.425781 1.757812 L 26.425781 28.242188 L 7.148438 28.242188 L 7.148438 17.695312 L 5.332031 17.695312 L 5.332031 30 L 28.242188 30 L 28.242188 0 L 5.332031 0 Z M 5.332031 6.179688 "/>
<path style=" stroke:none;fill-rule:nonzero;fill:rgb(0%,0%,0%);fill-opacity:1;" d="M 19.933594 11.496094 L 19.335938 12.101562 L 20.34375 13.109375 L 21.359375 14.121094 L 1.757812 14.121094 L 1.757812 15.878906 L 21.359375 15.878906 L 20.34375 16.890625 L 19.335938 17.898438 L 19.953125 18.515625 L 20.566406 19.132812 L 22.632812 17.0625 L 24.695312 15 L 22.648438 12.949219 C 21.523438 11.824219 20.585938 10.898438 20.566406 10.898438 C 20.546875 10.898438 20.265625 11.167969 19.933594 11.496094 Z M 19.933594 11.496094 "/>
</g>
</svg>
