<svg width="21" height="21" viewBox="0 0 21 21" fill="none" xmlns="http://www.w3.org/2000/svg">
<path d="M9.95108 0.0199375C7.82163 0.208311 5.95017 1.50236 5.03287 3.41887C4.79126 3.92666 4.61927 4.46311 4.52098 4.99548C4.50051 5.10604 4.45546 5.8104 4.4268 6.55571C4.32851 8.8162 4.16062 9.95054 3.73882 11.2733C3.17779 13.0382 2.45706 14.1562 1.03196 15.4789C0.294847 16.1587 0 16.7115 0 17.4077C0 17.7066 0.0122853 17.7517 0.114663 17.8868C0.176089 17.9687 0.270276 18.0588 0.319417 18.0875C0.389034 18.1284 1.1712 18.1448 3.78387 18.1612L7.15413 18.1817L7.28517 18.5543C7.67421 19.6723 8.57513 20.4913 9.70947 20.7657C10.0862 20.8558 10.8397 20.8558 11.2165 20.7657C12.3508 20.4913 13.2517 19.6723 13.6408 18.5543L13.7718 18.1817L17.1421 18.1612C19.7547 18.1448 20.5369 18.1284 20.6065 18.0875C20.9095 17.9155 21.0078 17.5387 20.885 16.9982C20.7457 16.3676 20.5697 16.1218 19.6196 15.2127C18.0184 13.6853 17.1339 11.8793 16.7326 9.3158C16.6056 8.50497 16.5647 8.00537 16.4991 6.55571C16.4705 5.8104 16.4254 5.10604 16.4049 4.99548C15.9913 2.7268 14.341 0.879908 12.1583 0.245169C11.454 0.0404129 10.6513 -0.0414886 9.95108 0.0199375ZM11.2124 1.43274C11.6464 1.51055 12.1665 1.67026 12.49 1.82997C13.477 2.32548 14.3001 3.17726 14.7096 4.1396C15.0454 4.92177 15.0822 5.13061 15.1314 6.62942C15.2337 9.64341 15.6514 11.5763 16.5892 13.4191C17.1462 14.5002 17.7768 15.3397 18.7924 16.3266L19.2879 16.8098H10.4671H1.64623L2.23592 16.2242C3.37845 15.0981 4.12785 14.0047 4.70526 12.6246C5.38505 10.9989 5.70447 9.24618 5.79456 6.60894C5.84779 5.10604 5.88055 4.92177 6.21635 4.1396C6.71595 2.96431 7.80115 1.98558 9.02559 1.60064C9.74632 1.37132 10.5285 1.31399 11.2124 1.43274ZM12.3058 18.2103C12.3058 18.3209 12.0478 18.7018 11.8389 18.9106C11.0813 19.6559 9.84461 19.6559 9.08701 18.9106C8.87816 18.7018 8.62017 18.3209 8.62017 18.2103C8.62017 18.1735 9.0174 18.1612 10.463 18.1612C11.9085 18.1612 12.3058 18.1735 12.3058 18.2103Z" fill="#A8A8A8" fill-opacity="0.62"/>
</svg>
