<svg width="20" height="20" viewBox="0 0 20 20" fill="none" xmlns="http://www.w3.org/2000/svg">
<path d="M11.5625 1.87891L6.73828 3.05078L4.16015 3.04688C2.66406 3.04688 1.48437 3.0625 1.35156 3.08594C0.882809 3.16406 0.441402 3.45703 0.21484 3.84375C-0.0117226 4.23047 -3.8147e-06 3.875 -3.8147e-06 11.1562C-3.8147e-06 15.4531 0.0156212 17.9141 0.0390587 18.0469C0.144527 18.5977 0.574215 19.0742 1.11718 19.2383C1.28515 19.2891 2.375 19.2969 9.6875 19.2969C17 19.2969 18.0898 19.2891 18.2578 19.2383C18.8008 19.0742 19.2305 18.5977 19.3359 18.0469C19.3594 17.9336 19.375 17.1914 19.375 16.3828V14.9219H19.5625C19.7578 14.9219 19.8789 14.8516 19.957 14.6992C20.0234 14.5703 20.0156 10.2891 19.9492 10.1562C19.8906 10.0352 19.6719 9.92188 19.5039 9.92188H19.375V7.19531C19.375 4.85938 19.3672 4.4375 19.3125 4.23828C19.168 3.67188 18.7422 3.25781 18.1836 3.12109C18.0781 3.09766 17.9687 3.07031 17.9453 3.0625C17.9219 3.05859 17.8086 2.66797 17.6953 2.19922C17.582 1.73047 17.457 1.28516 17.4219 1.21094C17.2578 0.894531 16.9414 0.703125 16.5937 0.707031C16.4648 0.707031 14.6055 1.14062 11.5625 1.87891ZM16.793 1.40234C16.8359 1.44531 16.8906 1.54688 16.9102 1.62891C17 1.96484 17.5391 4.21484 17.5391 4.25391C17.5391 4.27734 17.4961 4.30469 17.4414 4.32031C17.3164 4.35156 17.1875 4.51172 17.1875 4.63672C17.1875 4.6875 17.2305 4.77344 17.2852 4.82422C17.3633 4.90625 17.4141 4.92188 17.6289 4.92188C18.2227 4.92188 18.6406 5.22266 18.7305 5.71484L18.7578 5.86328L18.5312 5.74609C18.4023 5.68359 18.1875 5.60938 18.0469 5.58984C17.875 5.5625 15.1445 5.54688 9.5664 5.54688H1.34375L1.14453 5.44922C0.367184 5.0625 0.519527 3.89844 1.36718 3.71484C1.5625 3.67188 4.05859 3.65234 4.01562 3.69141C4.00781 3.70312 3.41796 3.85156 2.71093 4.02344C1.58593 4.29688 1.41406 4.34766 1.33593 4.43359C1.22656 4.55859 1.22656 4.6875 1.33203 4.82031L1.41015 4.92188H8.89062H16.3711L16.4648 4.82422C16.5898 4.70312 16.5898 4.56641 16.4687 4.42578L16.375 4.31641L10.3477 4.29688L4.32031 4.27734L10.3711 2.80859C13.7031 2 16.4922 1.33594 16.5742 1.33203C16.668 1.32812 16.7461 1.35547 16.793 1.40234ZM18.3672 3.87891C18.5547 4.02344 18.6914 4.24219 18.7344 4.46875L18.7617 4.625L18.625 4.54297C18.5508 4.5 18.4297 4.44141 18.3516 4.41797C18.2227 4.375 18.2148 4.35938 18.1523 4.08984C18.1133 3.9375 18.0859 3.79688 18.0859 3.77734C18.0859 3.71484 18.207 3.75781 18.3672 3.87891ZM0.917965 6.03516L1.15234 6.15234L9.58984 6.17188C17.2109 6.19141 18.0391 6.19922 18.1641 6.25391C18.3672 6.34766 18.5469 6.51172 18.6445 6.69531C18.7266 6.85156 18.7305 6.89453 18.7422 8.38672L18.7539 9.91797L16.3984 9.92969C13.8086 9.94141 13.9258 9.92969 13.8086 10.1836C13.7578 10.293 13.75 10.6016 13.7578 12.5L13.7695 14.6953L13.8984 14.8086L14.0234 14.9219H16.3867H18.75V16.4023C18.75 18.0039 18.7422 18.0625 18.5352 18.3398C18.4766 18.4141 18.3398 18.5156 18.2305 18.5742L18.0312 18.6719H9.6875H1.34375L1.14453 18.5742C1.03515 18.5156 0.898434 18.4141 0.83984 18.3398C0.613277 18.0391 0.624996 18.4102 0.624996 11.8867C0.624996 8.58984 0.636715 5.89844 0.656246 5.90625C0.671871 5.91406 0.789059 5.97266 0.917965 6.03516ZM19.375 12.4219V14.2969H16.875H14.375V12.4219V10.5469H16.875H19.375V12.4219Z" fill="#A8A8A8" fill-opacity="0.62"/>
<path d="M16.0039 11.5391C15.1914 11.7617 15.0781 12.8828 15.832 13.2617C16.3437 13.5156 16.9414 13.2695 17.1289 12.7305C17.2109 12.5 17.2031 12.3633 17.0977 12.2422C16.9687 12.0977 16.7812 12.0977 16.6523 12.2422C16.6055 12.3008 16.5625 12.3906 16.5625 12.4453C16.5625 12.582 16.3984 12.7344 16.25 12.7344C16.1016 12.7344 15.9375 12.582 15.9375 12.4492C15.9375 12.3008 16.0742 12.1641 16.2656 12.1133C16.5508 12.043 16.6484 11.8164 16.4766 11.625C16.3633 11.5 16.2383 11.4766 16.0039 11.5391Z" fill="#A8A8A8" fill-opacity="0.62"/>
</svg>
