<svg width="21" height="20" viewBox="0 0 21 20" fill="none" xmlns="http://www.w3.org/2000/svg">
<path d="M6.88867 0.110716C4.32972 0.578217 2.07423 2.25958 0.901382 4.58068C-0.722567 7.80397 -0.115637 11.6506 2.42691 14.2095C3.74739 15.5382 5.22371 16.2928 7.0609 16.5963C8.03691 16.7521 8.69306 16.7521 9.66907 16.5963C15.2791 15.6859 18.3793 9.63296 15.8286 4.58068C14.6393 2.22677 12.3921 0.561813 9.79209 0.110716C8.93091 -0.0369167 7.72525 -0.0369167 6.88867 0.110716ZM10.2104 1.99712C14.5163 3.26839 16.3371 8.20586 13.893 11.9787C12.9908 13.3812 11.3996 14.472 9.71828 14.8411C9.44762 14.8985 8.84069 14.9477 8.36499 14.9477C7.38077 14.9477 6.78205 14.8329 5.90446 14.4884C3.15687 13.3976 1.41809 10.4859 1.78717 7.58252C2.22187 4.11318 5.11709 1.61984 8.57003 1.74287C9.23437 1.76747 9.66907 1.83309 10.2104 1.99712Z" fill="#A8A8A8" fill-opacity="0.66"/>
<path d="M15.1725 15.202L13.9832 16.3994L15.6318 18.0316C17.3541 19.7457 17.6986 20 18.3301 20C19.2077 20 20.0115 19.1798 20.0115 18.3022C20.0033 17.6871 19.7491 17.3344 18.0677 15.6367C17.1819 14.7427 16.4355 14.0127 16.4027 14.0127C16.3781 14.0127 15.8286 14.5458 15.1725 15.202Z" fill="#A8A8A8" fill-opacity="0.66"/>
</svg>
