<svg width="23" height="24" viewBox="0 0 23 24" fill="none" xmlns="http://www.w3.org/2000/svg">
<path d="M0.928094 0.0821114C0.782251 0.148403 0.517081 0.360539 0.331462 0.559417L0 0.917396V4.7491V8.5808L0.43753 9.00507L0.861802 9.4426L3.28811 9.48238L5.71441 9.52216L6.33756 8.72665L6.96071 7.91788H4.50789C2.22743 7.91788 2.04181 7.90462 1.7899 7.65271C1.53798 7.4008 1.52473 7.21518 1.52473 4.73584C1.52473 2.2565 1.53798 2.07088 1.7899 1.81897C2.04181 1.56706 2.22743 1.5538 4.70676 1.5538C7.1861 1.5538 7.37172 1.56706 7.62363 1.81897C7.87554 2.07088 7.8888 2.2565 7.8888 4.59V7.09585L8.69757 6.61855L9.49308 6.14124L9.4533 3.51606L9.41353 0.890879L8.976 0.466607L8.55173 0.0290775L4.86587 0.00255966C2.85058 -0.0106983 1.07394 0.0290775 0.928094 0.0821114Z" fill="#666666"/>
<path d="M13.6562 0.0821018C13.5104 0.148395 13.2452 0.36053 13.0596 0.559407C12.7414 0.904128 12.7281 0.970421 12.6883 3.22436L12.6486 5.53134H13.0331C13.2452 5.53134 13.6164 5.57112 13.8418 5.61089L14.2528 5.69044V3.88729C14.2528 1.39469 14.0407 1.55379 17.4349 1.55379C19.9142 1.55379 20.0998 1.56705 20.3517 1.81896C20.6037 2.07088 20.6169 2.25649 20.6169 4.73583C20.6169 7.93113 20.6302 7.91787 19.1983 7.91787H18.3099L18.6547 8.27585C18.827 8.48798 19.1187 8.84596 19.2911 9.09787C19.596 9.5354 19.6093 9.5354 20.4446 9.48237C21.187 9.4426 21.3461 9.3763 21.7174 9.00507L22.1416 8.58079V4.73583V0.890869L21.7041 0.466598L21.2798 0.029068L17.594 0.00255108C15.5787 -0.0107079 13.802 0.029068 13.6562 0.0821018Z" fill="#666666"/>
<path d="M11.3493 7.26822C9.61243 7.61294 7.82253 8.99182 7.01376 10.6491C5.76746 13.1417 6.23151 15.9658 8.19377 17.928C9.13512 18.8694 10.0234 19.36 11.2963 19.6649C12.874 20.0361 14.7832 19.7047 16.0561 18.8429L16.5466 18.5114L18.8271 20.7654C21.2003 23.1386 21.4257 23.2845 21.9428 22.7674C22.4599 22.2503 22.3273 22.0117 19.9806 19.6782L17.7399 17.4375L18.257 16.4298C18.9199 15.1172 19.132 13.977 18.9331 12.6379C18.4161 8.99182 14.9821 6.55226 11.3493 7.26822ZM14.5976 9.16418C15.6185 9.62823 16.5201 10.5298 16.9974 11.5507C17.3156 12.2402 17.3686 12.5318 17.3686 13.4865C17.3686 14.4411 17.3156 14.7327 16.9974 15.4222C16.5201 16.4431 15.6185 17.3447 14.5844 17.822C13.9082 18.1269 13.6165 18.1932 12.6619 18.1932C11.2963 18.1932 10.3814 17.822 9.37377 16.8806C8.39264 15.9658 7.96837 14.9184 7.96837 13.4865C7.95511 12.5318 8.02141 12.2402 8.32635 11.564C9.45332 9.13767 12.2111 8.07699 14.5976 9.16418Z" fill="#666666"/>
<path d="M0.928094 12.8235C0.782251 12.8766 0.517081 13.0887 0.331462 13.2876L0 13.6456V17.4773V21.309L0.43753 21.7332L0.861802 22.1708H4.70676H8.55172L8.93622 21.773C9.62566 21.0703 9.58589 20.8847 8.68431 20.3411C8.24678 20.0892 7.8888 19.9301 7.8888 19.9964C7.8888 20.0627 7.76947 20.235 7.62363 20.3809C7.37172 20.6328 7.1861 20.6461 4.70676 20.6461C2.22743 20.6461 2.04181 20.6328 1.7899 20.3809C1.53798 20.129 1.52473 19.9434 1.52473 17.464C1.52473 14.1494 1.44518 14.282 3.38091 14.282H4.70676V13.4865V12.691L2.95664 12.7042C1.98877 12.7042 1.07394 12.7572 0.928094 12.8235Z" fill="#666666"/>
</svg>
