<svg width="24" height="24" viewBox="0 0 24 24" fill="none" xmlns="http://www.w3.org/2000/svg">
<g clip-path="url(#clip0_92_3979)">
<path opacity="0.958" fill-rule="evenodd" clip-rule="evenodd" d="M9.39844 -0.0234375C9.57033 -0.0234375 9.74217 -0.0234375 9.91406 -0.0234375C10.0668 0.0431711 10.184 0.152546 10.2656 0.304688C10.4038 1.75102 11.1772 2.33696 12.5859 2.0625C13.126 1.83506 13.4619 1.43662 13.5938 0.867188C13.5555 0.465414 13.704 0.168539 14.0391 -0.0234375C14.211 -0.0234375 14.3828 -0.0234375 14.5547 -0.0234375C16.0453 0.319949 17.4359 0.905887 18.7266 1.73438C19.0216 1.9631 19.1076 2.25217 18.9844 2.60156C18.3771 3.24514 18.2677 3.96389 18.6562 4.75781C19.1623 5.44214 19.8263 5.66869 20.6484 5.4375C20.8956 5.29964 21.1299 5.14341 21.3516 4.96875C21.699 4.85447 21.9881 4.94044 22.2188 5.22656C23.0639 6.51028 23.6498 7.90088 23.9766 9.39844C23.9766 9.57033 23.9766 9.74217 23.9766 9.91406C23.8781 10.0361 23.7688 10.1533 23.6484 10.2656C22.2025 10.4026 21.6166 11.1761 21.8906 12.5859C22.1169 13.1246 22.5154 13.4606 23.0859 13.5938C23.4856 13.5554 23.7825 13.7038 23.9766 14.0391C23.9766 14.2266 23.9766 14.4141 23.9766 14.6016C23.6576 15.925 23.1498 17.175 22.4531 18.3516C22.3331 18.5679 22.1847 18.7632 22.0078 18.9375C21.7947 19.0099 21.576 19.0256 21.3516 18.9844C20.49 18.2011 19.6384 18.2089 18.7969 19.0078C18.247 19.7677 18.2782 20.502 18.8906 21.2109C19.1253 21.5927 19.0707 21.9286 18.7266 22.2188C17.4321 23.038 16.0414 23.624 14.5547 23.9766C14.3828 23.9766 14.211 23.9766 14.0391 23.9766C13.704 23.7846 13.5555 23.4877 13.5938 23.0859C13.369 22.2595 12.8299 21.822 11.9766 21.7734C11.2596 21.8111 10.7518 22.1548 10.4531 22.8047C10.3754 23.0828 10.3129 23.3641 10.2656 23.6484C10.1712 23.7849 10.054 23.8943 9.91406 23.9766C9.74217 23.9766 9.57033 23.9766 9.39844 23.9766C7.9117 23.624 6.52106 23.038 5.22656 22.2188C4.93167 21.9904 4.8457 21.7013 4.96875 21.3516C5.57602 20.708 5.68538 19.9892 5.29688 19.1953C4.47126 18.2232 3.57282 18.1529 2.60156 18.9844C2.3758 19.0812 2.15705 19.0656 1.94531 18.9375C1.30136 18.1109 0.809175 17.1968 0.46875 16.1953C0.281705 15.6491 0.117642 15.1022 -0.0234375 14.5547C-0.0234375 14.3828 -0.0234375 14.211 -0.0234375 14.0391C0.0750019 13.917 0.184377 13.7998 0.304688 13.6875C1.75155 13.5479 2.33749 12.7745 2.0625 11.3672C1.70347 10.6518 1.11754 10.2847 0.304688 10.2656C0.152546 10.184 0.0431711 10.0668 -0.0234375 9.91406C-0.0234375 9.74217 -0.0234375 9.57033 -0.0234375 9.39844C0.319949 7.90781 0.905887 6.51722 1.73438 5.22656C2.0052 4.92239 2.32552 4.85208 2.69531 5.01562C3.3816 5.6378 4.11597 5.70028 4.89844 5.20312C5.74228 4.35868 5.76572 3.49149 4.96875 2.60156C4.89084 2.37963 4.90645 2.16088 5.01562 1.94531C5.84227 1.30136 6.75633 0.809175 7.75781 0.46875C8.304 0.281705 8.85089 0.117642 9.39844 -0.0234375ZM9.11719 1.38281C9.75173 2.9766 10.9236 3.65629 12.6328 3.42188C13.7244 3.13037 14.451 2.45068 14.8125 1.38281C15.7499 1.64458 16.6327 2.0274 17.4609 2.53125C16.9557 3.63387 17.0416 4.68858 17.7188 5.69531C18.7553 6.85894 19.9897 7.12453 21.4219 6.49219C21.9362 7.30823 22.319 8.18325 22.5703 9.11719C21.0007 9.74316 20.321 10.8994 20.5312 12.5859C20.7928 13.7146 21.4725 14.4646 22.5703 14.8359C22.3186 15.7715 21.9358 16.6465 21.4219 17.4609C20.3192 16.9557 19.2645 17.0416 18.2578 17.7188C17.3861 18.4424 17.0189 19.372 17.1562 20.5078C17.2018 20.8319 17.3033 21.1366 17.4609 21.4219C16.6391 21.9185 15.7642 22.3013 14.8359 22.5703C14.2017 20.9769 13.0298 20.2973 11.3203 20.5312C10.2284 20.8268 9.49397 21.5065 9.11719 22.5703C8.19628 22.2972 7.32131 21.9222 6.49219 21.4453C7.08684 20.1378 6.89934 18.9581 5.92969 17.9062C4.88348 17.0513 3.74286 16.9028 2.50781 17.4609C2.02368 16.6254 1.64868 15.7425 1.38281 14.8125C2.96025 14.2022 3.63994 13.0538 3.42188 11.3672C3.14373 10.2555 2.46404 9.51333 1.38281 9.14062C1.64786 8.21198 2.02286 7.32919 2.50781 6.49219C4.05706 7.15763 5.34614 6.8295 6.375 5.50781C6.92133 4.52737 6.96037 3.52737 6.49219 2.50781C7.32741 2.02738 8.20242 1.65238 9.11719 1.38281ZM11.7422 7.28906C13.6894 7.30523 15.1504 8.14898 16.125 9.82031C17.0922 12.0356 16.6937 13.9653 14.9297 15.6094C12.9339 17.0259 10.9495 17.0103 8.97656 15.5625C7.39627 14.0774 6.95095 12.3039 7.64062 10.2422C8.45423 8.4825 9.82144 7.49813 11.7422 7.28906Z" fill="#384153"/>
<path opacity="0.957" fill-rule="evenodd" clip-rule="evenodd" d="M11.2732 6.02345C13.8726 5.85817 15.8492 6.87377 17.2029 9.07033C17.9875 10.5843 18.1437 12.1624 17.6717 13.8047C16.8126 16.1478 15.1486 17.515 12.6795 17.9063C10.0789 18.0944 8.10237 17.0866 6.74979 14.8828C5.96328 13.3692 5.80704 11.7911 6.28104 10.1485C7.14785 7.8048 8.81192 6.42977 11.2732 6.02345ZM11.742 7.28908C9.82123 7.49814 8.45403 8.48252 7.64042 10.2422C6.95074 12.3039 7.39606 14.0774 8.97635 15.5625C10.9493 17.0103 12.9337 17.0259 14.9295 15.6094C16.6935 13.9653 17.092 12.0356 16.1248 9.82033C15.1502 8.149 13.6892 7.30525 11.742 7.28908Z" fill="#384153"/>
</g>
<defs>
<clipPath id="clip0_92_3979">
<rect width="24" height="24" fill="white"/>
</clipPath>
</defs>
</svg>
