<svg width="15" height="14" viewBox="0 0 15 14" fill="none" xmlns="http://www.w3.org/2000/svg">
<path d="M7.14557 0.0324364C6.96852 0.098114 6.83717 0.195202 6.75436 0.31799C6.70867 0.383668 6.29461 1.32029 5.83487 2.39968C5.00391 4.34717 4.99819 4.3643 4.90967 4.37858C4.86113 4.38429 3.88453 4.47567 2.7366 4.57847C0.517844 4.77835 0.532122 4.7755 0.329378 4.94969C0.132345 5.11531 0.0238345 5.47225 0.0923676 5.7264C0.109501 5.79207 0.166612 5.90344 0.218012 5.97197C0.266556 6.04336 0.997576 6.70299 1.83711 7.43687C2.67664 8.16789 3.39909 8.80182 3.44192 8.84465L3.52188 8.9189L3.04786 10.9892C2.73946 12.3427 2.57384 13.1194 2.57098 13.2308C2.56813 13.5335 2.72232 13.7847 2.99931 13.919C3.1992 14.0189 3.44478 14.0246 3.6361 13.9389C3.70749 13.9075 4.42709 13.4849 5.23521 13.0023C6.04332 12.5197 6.84288 12.0429 7.0085 11.9429C7.17412 11.843 7.33118 11.7545 7.35402 11.7459C7.37686 11.7373 8.14215 12.1771 9.19299 12.8053C10.181 13.3964 11.0462 13.9075 11.1176 13.9389C11.309 14.0275 11.5545 14.0189 11.7544 13.919C12.0314 13.7847 12.1856 13.5335 12.1827 13.2308C12.1799 13.1194 12.0143 12.3427 11.7059 10.9892L11.2347 8.9189L11.2975 8.85893C11.3318 8.82466 12.0542 8.19073 12.9023 7.44829C13.7504 6.7087 14.4872 6.04336 14.5357 5.97197C14.6528 5.81206 14.6985 5.6493 14.6785 5.45797C14.6471 5.16671 14.4529 4.90685 14.1902 4.80691C14.1102 4.7755 13.3821 4.6984 11.9229 4.56704C10.7407 4.45853 9.76696 4.3643 9.76124 4.35859C9.75553 4.35288 9.36718 3.45624 8.90173 2.36542C8.43627 1.2746 8.01936 0.335124 7.97653 0.278013C7.79949 0.058136 7.39971 -0.0617971 7.14557 0.0324364Z" fill="#FFE500"/>
</svg>
